<?xml version="1.0" encoding="UTF-8"?>
<svg xmlns="http://www.w3.org/2000/svg" version="1.1" viewBox="0 0 300 300">
  <!-- Generator: Adobe Illustrator 29.8.1, SVG Export Plug-In . SVG Version: 2.1.1 Build 2)  -->
  <defs>
    <style>
      .st0 {
        fill: #002E66;
      }

      .st1 {
        fill: #0099FF;
      }
    </style>
  </defs>
  <g id="CONTAINER">
    <rect class="st0" width="300" height="300"/>
  </g>
  <g id="ICON">
    <g>
      <path class="st1" d="M131.3,150c0,5.2,4.2,9.4,9.4,9.4s9.4-4.2,9.4-9.4,0,0,0,0l56.2-56.2h9.4l9.4-9.4h-18.8v-18.8l-9.4,9.4v9.4l-56.2,56.3c-5.2,0-9.4,4.2-9.4,9.4Z"/>
      <path class="st1" d="M197.7,117.6c5.4,9.6,8.5,20.6,8.5,32.4,0,36.2-29.4,65.6-65.6,65.6s-65.6-29.4-65.6-65.6,29.4-65.6,65.6-65.6,21.1,2.7,30.1,7.3l13.8-13.8c-12.8-7.8-27.8-12.3-43.9-12.3-46.6,0-84.4,37.8-84.4,84.4s37.8,84.4,84.4,84.4,84.4-37.8,84.4-84.4-4.8-31.9-13-44.9l-14.3,12.5Z"/>
      <path class="st1" d="M140.6,121.9l15.9-15.9c-5-1.8-10.3-2.8-15.9-2.8-25.9,0-46.9,21-46.9,46.9s21,46.9,46.9,46.9,46.9-21,46.9-46.9-1.6-13.7-4.3-19.7l-15.2,13.3c.5,2.1.7,4.2.7,6.4,0,15.5-12.6,28.1-28.1,28.1s-28.1-12.6-28.1-28.1,12.6-28.1,28.1-28.1Z"/>
    </g>
  </g>
</svg>