<?xml version="1.0" encoding="UTF-8"?>
<svg xmlns="http://www.w3.org/2000/svg" version="1.1" viewBox="0 0 300 300">
  <!-- Generator: Adobe Illustrator 29.8.1, SVG Export Plug-In . SVG Version: 2.1.1 Build 2)  -->
  <defs>
    <style>
      .st0 {
        fill: #0a3847;
      }

      .st1 {
        fill: #abe8e5;
      }
    </style>
  </defs>
  <g id="CONTAINER">
    <circle class="st0" cx="150" cy="150" r="150"/>
  </g>
  <g id="ICON">
    <g>
      <path class="st1" d="M150,65.6c-46.6,0-84.4,37.8-84.4,84.4s37.8,84.4,84.4,84.4,84.4-37.8,84.4-84.4-37.8-84.4-84.4-84.4ZM150,215.6c-36.2,0-65.6-29.4-65.6-65.6s29.4-65.6,65.6-65.6,65.6,29.4,65.6,65.6-29.4,65.6-65.6,65.6Z"/>
      <path class="st1" d="M150,103.1c-25.9,0-46.9,21-46.9,46.9s21,46.9,46.9,46.9,46.9-21,46.9-46.9-21-46.9-46.9-46.9ZM150,178.1c-15.5,0-28.1-12.6-28.1-28.1s12.6-28.1,28.1-28.1,28.1,12.6,28.1,28.1-12.6,28.1-28.1,28.1Z"/>
      <circle class="st1" cx="150" cy="150" r="9.4"/>
    </g>
  </g>
</svg>