<?xml version="1.0" encoding="UTF-8"?>
<svg id="ICON" xmlns="http://www.w3.org/2000/svg" version="1.1" viewBox="0 0 300 300">
  <!-- Generator: Adobe Illustrator 29.7.1, SVG Export Plug-In . SVG Version: 2.1.1 Build 8)  -->
  <defs>
    <style>
      .st0 {
        fill: #0a3847;
      }

      .st1 {
        fill: #abe8e5;
      }
    </style>
  </defs>
  <circle class="st1" cx="150" cy="150" r="150"/>
  <g>
    <path class="st0" d="M103.1,75c-20.7,0-37.5,16.8-37.5,37.5s12,32.2,28.1,36.3v76.2h18.7v-76.2c16.2-4.2,28.1-18.8,28.1-36.3s-16.8-37.5-37.5-37.5ZM103.1,131.3c-10.4,0-18.8-8.4-18.8-18.8s8.4-18.8,18.8-18.8,18.8,8.4,18.8,18.8-8.4,18.8-18.8,18.8Z"/>
    <path class="st0" d="M234.4,112.5h0v-37.5h-18.7v37.5h0c0,10.4-8.4,18.8-18.8,18.8s-18.8-8.4-18.8-18.8v-37.5h-18.7v37.5h0c0,17.5,12,32.1,28.1,36.3v76.2h18.7v-76.2c16.2-4.2,28.1-18.8,28.1-36.3Z"/>
    <rect class="st0" x="187.5" y="75" width="18.7" height="37.5"/>
  </g>
</svg>