<?xml version="1.0" encoding="UTF-8"?>
<svg id="ICON" xmlns="http://www.w3.org/2000/svg" version="1.1" viewBox="0 0 300 300">
  <!-- Generator: Adobe Illustrator 29.7.1, SVG Export Plug-In . SVG Version: 2.1.1 Build 8)  -->
  <defs>
    <style>
      .st0 {
        fill: #0a3847;
      }

      .st1 {
        fill: #abe8e5;
      }
    </style>
  </defs>
  <circle class="st0" cx="150" cy="150" r="150"/>
  <g>
    <path class="st1" d="M159.4,75v56.2l9.3,9.3h0c0,0,9.5,0,9.5,0h0s28.1,0,28.1,0h0s18.7,0,18.7,0h0c0-36.3-29.4-65.6-65.6-65.6ZM178.1,121.9v-24.2c10.8,4.7,19.5,13.4,24.2,24.2h-24.2Z"/>
    <path class="st1" d="M150,93.8h-9.4c-36.2,0-65.6,29.4-65.6,65.6s29.4,65.6,65.6,65.6,65.6-29.4,65.6-65.6v-9.4h-56.2v-56.3ZM186.6,168.8c-4.3,21.4-23.3,37.5-46,37.5s-46.9-21-46.9-46.9,16.1-41.6,37.5-46v46l9.4,9.4h46Z"/>
  </g>
</svg>