<?xml version="1.0" encoding="UTF-8"?>
<svg id="ICON" xmlns="http://www.w3.org/2000/svg" version="1.1" viewBox="0 0 300 300">
  <!-- Generator: Adobe Illustrator 29.7.1, SVG Export Plug-In . SVG Version: 2.1.1 Build 8)  -->
  <defs>
    <style>
      .st0 {
        fill: #a3a6fa;
      }

      .st1 {
        fill: #170a47;
      }
    </style>
  </defs>
  <rect class="st0" width="300" height="300"/>
  <g>
    <polygon class="st1" points="225 131.2 210.9 131.2 210.9 117.2 192.2 117.2 192.2 131.2 178.1 131.2 178.1 150 192.2 150 192.2 164.1 210.9 164.1 210.9 150 225 150 225 131.2"/>
    <path class="st1" d="M131.2,150l-56.2,41.8v33.2h131.2v-33.2l-56.2-41.8h-18.8ZM187.5,206.2h-93.8v-5l43.9-32.5h6l43.9,32.5v5Z"/>
    <path class="st1" d="M140.6,140.7c18.1,0,32.8-14.7,32.8-32.8s-14.7-32.8-32.8-32.8-32.8,14.7-32.8,32.8,14.7,32.8,32.8,32.8ZM140.6,93.9c7.7,0,14,6.3,14,14s-6.3,14-14,14-14-6.3-14-14,6.3-14,14-14Z"/>
  </g>
</svg>