<?xml version="1.0" encoding="UTF-8"?>
<svg id="ICON" xmlns="http://www.w3.org/2000/svg" version="1.1" viewBox="0 0 300 300">
  <!-- Generator: Adobe Illustrator 29.7.1, SVG Export Plug-In . SVG Version: 2.1.1 Build 8)  -->
  <defs>
    <style>
      .st0 {
        fill: #002e66;
      }

      .st1 {
        fill: #09f;
      }
    </style>
  </defs>
  <rect class="st1" width="300" height="300"/>
  <path class="st0" d="M225,107.8c0-12.9-10.5-23.4-23.4-23.4s-8.8,1.3-12.4,3.6c-10.9-8.1-24.5-13-39.1-13s-28.2,4.8-39.1,13c-3.6-2.3-7.9-3.6-12.4-3.6-12.9,0-23.4,10.5-23.4,23.4s4.3,15.5,10.7,19.7c-.9,4.2-1.3,8.6-1.3,13.1,0,28,17.5,51.9,42.2,61.3.2,12.8,10.6,23.1,23.4,23.1s23.2-10.3,23.4-23.1c24.7-9.4,42.2-33.3,42.2-61.3s-.5-8.9-1.3-13.1c6.4-4.2,10.7-11.4,10.7-19.7ZM206.2,107.1c0,.2,0,.5,0,.8,0,2.6-2.1,4.7-4.7,4.7s-4.7-2.1-4.7-4.7,2.1-4.7,4.7-4.7.6,0,.9,0c.2,0,.4.1.6.2,0,0,.2,0,.2,0,.3.1.5.2.7.4,0,0,0,0,0,0,.2.1.5.3.7.5h0c.6.6,1.1,1.3,1.4,2.1,0,.2.1.4.2.6ZM95.3,104.3h0c.2-.2.4-.3.7-.5,0,0,0,0,0,0,.2-.1.5-.3.7-.4,0,0,.1,0,.2,0,.2,0,.4-.1.6-.2.3,0,.6,0,.9,0,2.6,0,4.7,2.1,4.7,4.7s-2.1,4.7-4.7,4.7-4.7-2.1-4.7-4.7,0-.5,0-.8c0-.2,0-.4.2-.6.3-.8.7-1.6,1.4-2.1ZM150,206.2c-1,0-1.9-.3-2.6-.8,0,0,0,0,0,0-.2-.2-.5-.4-.7-.6,0,0,0,0-.1-.1-.2-.2-.3-.4-.5-.5,0-.1-.1-.2-.2-.3,0-.2-.2-.3-.3-.5,0-.2-.1-.3-.2-.5,0-.1,0-.3-.1-.4,0-.3,0-.6,0-.9,0-2.6,2.1-4.7,4.7-4.7s4.7,2.1,4.7,4.7,0,.6,0,.9c0,.1,0,.3-.1.4,0,.2,0,.3-.2.5,0,.2-.2.3-.3.5,0,.1-.1.2-.2.3-.2.2-.3.4-.5.6,0,0,0,0,0,0-.2.2-.4.4-.7.6,0,0,0,0,0,0-.7.5-1.6.8-2.6.8,0,0,0,0,0,0s0,0,0,0ZM166.2,184.6c-4.2-4-9.9-6.5-16.2-6.5s-12,2.5-16.2,6.5c-17.9-6.6-30.7-23.8-30.7-44s.4-6.8,1.1-10.1c10.1-2.6,17.6-11.8,17.6-22.7s-.1-2.9-.4-4.4c7.9-6.1,17.8-9.7,28.5-9.7s20.6,3.6,28.5,9.7c-.3,1.4-.4,2.9-.4,4.4,0,10.9,7.5,20.1,17.6,22.7.7,3.3,1.1,6.6,1.1,10.1,0,20.2-12.8,37.4-30.7,44Z"/>
</svg>