<?xml version="1.0" encoding="UTF-8"?>
<svg id="ICON" xmlns="http://www.w3.org/2000/svg" version="1.1" viewBox="0 0 300 300">
  <!-- Generator: Adobe Illustrator 29.7.1, SVG Export Plug-In . SVG Version: 2.1.1 Build 8)  -->
  <defs>
    <style>
      .st0 {
        fill: #a3a6fa;
      }

      .st1 {
        fill: #170a47;
      }
    </style>
  </defs>
  <circle class="st1" cx="150" cy="150" r="150"/>
  <path class="st0" d="M187.6,131.3l37.4-18.8-75-37.5-75,37.5,37.4,18.8-37.4,18.7,37.4,18.8-37.4,18.7,75,37.6,75-37.6-37.4-18.7,37.4-18.8-37.4-18.7ZM150,95.9l33.2,16.6-33.2,16.6-33.1-16.6,33.1-16.6ZM150,150.1l16.7-8.4,16.5,8.2-33.2,16.6-33.1-16.6,16.5-8.2,16.7,8.4ZM183.2,187.5l-33.2,16.6-33.1-16.6,16.4-8.2,16.7,8.4,16.7-8.4,16.4,8.2Z"/>
</svg>