<?xml version="1.0" encoding="UTF-8"?>
<svg id="ICON" xmlns="http://www.w3.org/2000/svg" version="1.1" viewBox="0 0 300 300">
  <!-- Generator: Adobe Illustrator 29.7.1, SVG Export Plug-In . SVG Version: 2.1.1 Build 8)  -->
  <defs>
    <style>
      .st0 {
        fill: #0a3847;
      }

      .st1 {
        fill: #abe8e5;
      }
    </style>
  </defs>
  <rect class="st0" width="300" height="300"/>
  <g>
    <path class="st1" d="M150,75c-41.4,0-75,33.6-75,75s33.6,75,75,75,75-33.6,75-75-33.6-75-75-75ZM150,206.2c-31.1,0-56.2-25.2-56.2-56.2s25.2-56.2,56.2-56.2,56.2,25.2,56.2,56.2-25.2,56.2-56.2,56.2Z"/>
    <polygon class="st1" points="159.4 112.5 140.6 112.5 140.6 150 150 159.4 159.4 159.4 178.1 159.4 178.1 140.6 159.4 140.6 159.4 112.5"/>
  </g>
</svg>