<?xml version="1.0" encoding="UTF-8"?>
<svg id="ICON" xmlns="http://www.w3.org/2000/svg" version="1.1" viewBox="0 0 300 300">
  <!-- Generator: Adobe Illustrator 29.7.1, SVG Export Plug-In . SVG Version: 2.1.1 Build 8)  -->
  <defs>
    <style>
      .st0 {
        fill: #0a3847;
      }

      .st1 {
        fill: #abe8e5;
      }
    </style>
  </defs>
  <circle class="st0" cx="150" cy="150" r="150"/>
  <g>
    <path class="st1" d="M150,178.5c-15.7,0-28.5-12.8-28.5-28.5s12.8-28.5,28.5-28.5,28.5,12.8,28.5,28.5-12.8,28.5-28.5,28.5ZM150,136.9c-7.3,0-13.2,5.9-13.2,13.2s5.9,13.2,13.2,13.2,13.2-5.9,13.2-13.2-5.9-13.2-13.2-13.2Z"/>
    <path class="st1" d="M171.7,75.1h-43.3v20.9c-.4.2-.8.3-1.3.5l-14.8-14.8-30.6,30.6,14.8,14.8c-.2.4-.3.8-.5,1.3h-20.9v43.3h20.9c.2.4.3.8.5,1.3l-14.8,14.8,30.6,30.6,14.8-14.8c.4.2.8.3,1.3.5v20.9h43.3v-20.9c.4-.2.8-.3,1.3-.5l14.8,14.8,30.6-30.6-14.8-14.8c.2-.4.3-.8.5-1.3h20.9v-43.3h-20.9c-.2-.4-.3-.8-.5-1.3l14.8-14.8-30.6-30.6-14.8,14.8c-.4-.2-.8-.3-1.3-.5v-20.9ZM157.6,89.1v16.3l8.8,3.5h.3c.2.2.4.3.6.4l8.7,3.7,6.7-6.7,4.9-4.9,10.8,10.8-4.9,4.9-6.7,6.7,3.8,8.7c0,.2.2.4.3.6v.3c.1,0,3.6,8.8,3.6,8.8h16.4v15.3h-16.4l-3.5,8.8v.3c-.2.2-.3.4-.4.6l-3.8,8.7,6.7,6.7,4.9,4.9-10.8,10.8-4.9-4.9-6.7-6.7-8.7,3.7c-.2,0-.4.2-.6.2h-.4c0,.1-8.8,3.7-8.8,3.7v16.3h-15.3v-16.4l-8.8-3.5h-.3c-.2-.2-.4-.3-.6-.4l-8.7-3.7-6.7,6.7-4.9,4.9-10.8-10.8,4.9-4.9,6.7-6.7-3.7-8.7c0-.2-.2-.4-.3-.6v-.3c-.1,0-3.7-8.8-3.7-8.8h-16.3v-15.3h16.3l3.5-8.8v-.4c.2-.2.3-.4.4-.6l3.8-8.7-6.7-6.7-4.9-4.9,10.8-10.8,4.9,4.9,6.7,6.7,8.7-3.7c.2,0,.4-.2.6-.3h.3c0-.1,8.8-3.7,8.8-3.7v-16.3h15.3Z"/>
  </g>
</svg>