<?xml version="1.0" encoding="UTF-8"?>
<svg id="ICON" xmlns="http://www.w3.org/2000/svg" version="1.1" viewBox="0 0 300 300">
  <!-- Generator: Adobe Illustrator 29.7.1, SVG Export Plug-In . SVG Version: 2.1.1 Build 8)  -->
  <defs>
    <style>
      .st0 {
        fill: #0a3847;
      }

      .st1 {
        fill: #abe8e5;
      }
    </style>
  </defs>
  <rect class="st1" width="300" height="300"/>
  <g>
    <path class="st0" d="M150,75c-41.4,0-75,33.6-75,75s33.6,75,75,75,75-33.6,75-75-33.6-75-75-75ZM150,206.2c-31.1,0-56.2-25.2-56.2-56.2s25.2-56.2,56.2-56.2,56.2,25.2,56.2,56.2-25.2,56.2-56.2,56.2Z"/>
    <path class="st0" d="M163.3,147.1c-1.6-1-3.3-1.7-5.1-2.3-1.8-.5-3.6-.9-5.4-1.2-1.7-.3-3.3-.6-4.8-1-1.3-.4-2.4-.9-3.2-1.5-.7-.5-1-1.3-1-2.4,0-1.5.4-2.6,1.3-3.2,1-.7,2.2-1.1,3.7-1.1s3.4.4,4.4,1.3c1,.9,1.7,2.2,1.9,3.9,0,1,.8,1.6,1.7,1.6h8.7c.7,0,1.1-.3,1.3-.5.2-.2.5-.7.4-1.4-.6-4-2-7.1-4.2-9.4-2-2-4.6-3.5-7.7-4.2v-2.1c0-1.1-.7-1.8-1.8-1.8h-8.2c-1,0-1.7.7-1.7,1.8v2c-2.2.5-4.2,1.3-5.8,2.5-1.9,1.3-3.3,2.9-4.2,4.9-1,1.9-1.4,4.2-1.4,6.7s.5,5.1,1.5,6.9c1,1.8,2.3,3.2,3.9,4.2,1.5,1,3.3,1.7,5.1,2.2,1.8.5,3.6.9,5.4,1.2,1.7.3,3.3.7,4.7,1.1,1.3.4,2.4.9,3.2,1.6.7.6,1,1.4,1,2.6s-.2,2.2-.7,2.9c-.4.7-1.1,1.2-1.9,1.5-.9.4-2.1.5-3.5.5-2.6,0-4.4-.6-5.4-1.8-1-1.3-1.7-3.1-2-5.4,0-1-.8-1.6-1.8-1.6h-8.7c-1,0-1.7.7-1.7,1.8h0s0,0,0,0c.2,4.5,1.6,8,4,10.6,2.2,2.4,5.1,4.1,8.7,4.9v3.4c0,1.1.7,1.8,1.7,1.8h8.2c1.1,0,1.8-.7,1.8-1.8v-3c2.5-.4,4.7-1.3,6.5-2.4,2.1-1.3,3.7-3.1,4.8-5.2,1.1-2.1,1.7-4.7,1.7-7.5s-.5-5.1-1.5-6.9c-1-1.8-2.3-3.2-3.9-4.2Z"/>
  </g>
</svg>