<?xml version="1.0" encoding="UTF-8"?>
<svg id="ICON" xmlns="http://www.w3.org/2000/svg" version="1.1" viewBox="0 0 300 300">
  <!-- Generator: Adobe Illustrator 29.7.1, SVG Export Plug-In . SVG Version: 2.1.1 Build 8)  -->
  <defs>
    <style>
      .st0 {
        fill: #450d0a;
      }

      .st1 {
        fill: #ff8221;
      }
    </style>
  </defs>
  <rect class="st1" width="300" height="300"/>
  <path class="st0" d="M205.6,122.9c-4-27.1-27.4-47.9-55.6-47.9s-51.6,20.8-55.6,47.9c-16.5,4-28.7,18.8-28.7,36.5s16.8,37.5,37.5,37.5h0s9.4,0,9.4,0h0c0,0,0-65.6,0-65.6h0c0-20.7,16.8-37.4,37.4-37.4s37.4,16.8,37.4,37.4h0v46.9s-28.4,28.1-28.4,28.1h-18.5s0,18.7,0,18.7h28.1l28.1-28.1c20.7,0,37.5-16.8,37.5-37.5s-12.3-32.5-28.7-36.5ZM93.8,175.7c-4.1-2.3-7.2-6.2-8.6-10.7-.6-1.8-.8-3.7-.8-5.6s.1-2.6.4-3.8c1.1-5.4,4.5-9.9,9.1-12.5v32.6ZM206.2,175.7v-32.7c5.7,3.3,9.5,9.4,9.5,16.3s-3.8,13.1-9.5,16.3Z"/>
</svg>