<?xml version="1.0" encoding="UTF-8"?>
<svg id="ICON" xmlns="http://www.w3.org/2000/svg" version="1.1" viewBox="0 0 300 300">
  <!-- Generator: Adobe Illustrator 29.7.1, SVG Export Plug-In . SVG Version: 2.1.1 Build 8)  -->
  <defs>
    <style>
      .st0 {
        fill: #a3a6fa;
      }

      .st1 {
        fill: #170a47;
      }
    </style>
  </defs>
  <circle class="st0" cx="150" cy="150" r="150"/>
  <path class="st1" d="M234.4,179.8v-20.4l-9.4-9.4h-65.6v-20.2c13.5-4,23.4-16.6,23.4-31.4s-14.7-32.8-32.8-32.8-32.8,14.7-32.8,32.8,9.9,27.4,23.4,31.4v20.2h-65.6l-9.4,9.4v20.4c-10.9,3.9-18.6,14.3-18.6,26.4s12.6,28.1,28.1,28.1,28.1-12.6,28.1-28.1-7.9-22.7-18.8-26.5v-11h56.2v11.1c-10.8,3.9-18.6,14.3-18.6,26.4s12.6,28.1,28.1,28.1,28.1-12.6,28.1-28.1-7.9-22.7-18.8-26.5v-11h56.2v11c-10.9,3.8-18.8,14.3-18.8,26.5s12.6,28.1,28.1,28.1,28.1-12.6,28.1-28.1-7.8-22.6-18.6-26.4ZM136,98.4c0-7.7,6.3-14,14-14s14,6.3,14,14-6.3,14-14,14-14-6.3-14-14ZM75.1,215.6c-5.1,0-9.3-4.2-9.3-9.3s4.2-9.3,9.3-9.3,9.3,4.2,9.3,9.3-4.2,9.3-9.3,9.3ZM150.1,215.6c-5.2,0-9.3-4.2-9.3-9.3s4.2-9.3,9.3-9.3,9.3,4.2,9.3,9.3-4.2,9.3-9.3,9.3ZM224.9,215.6c-5.2,0-9.3-4.2-9.3-9.3s4.2-9.3,9.3-9.3,9.3,4.2,9.3,9.3-4.2,9.3-9.3,9.3Z"/>
</svg>