<?xml version="1.0" encoding="UTF-8"?>
<svg id="ICON" xmlns="http://www.w3.org/2000/svg" version="1.1" viewBox="0 0 300 300">
  <!-- Generator: Adobe Illustrator 29.7.1, SVG Export Plug-In . SVG Version: 2.1.1 Build 8)  -->
  <defs>
    <style>
      .st0 {
        fill: #0a3847;
      }

      .st1 {
        fill: #abe8e5;
      }
    </style>
  </defs>
  <circle class="st1" cx="150" cy="150" r="150"/>
  <g>
    <path class="st0" d="M187.5,140.7c18.1,0,32.8-14.7,32.8-32.8s-14.7-32.8-32.8-32.8-32.8,14.7-32.8,32.8,14.7,32.8,32.8,32.8ZM187.5,93.9c7.7,0,14,6.3,14,14s-6.3,14-14,14-14-6.3-14-14,6.3-14,14-14Z"/>
    <path class="st0" d="M103.1,150l-56.2,41.8v33.2h131.2v-33.2l-56.2-41.8h-18.8ZM159.4,206.2h-93.8v-5l43.9-32.5h6l43.9,32.5v5Z"/>
    <path class="st0" d="M112.5,140.7c18.1,0,32.8-14.7,32.8-32.8s-14.7-32.8-32.8-32.8-32.8,14.7-32.8,32.8,14.7,32.8,32.8,32.8ZM112.5,93.9c7.7,0,14,6.3,14,14s-6.3,14-14,14-14-6.3-14-14,6.3-14,14-14Z"/>
    <polygon class="st0" points="196.9 150 178.1 150 165.8 159.2 181.6 170.9 184.5 168.7 190.5 168.7 234.4 201.3 234.4 206.2 196.9 206.2 196.9 225 253.1 225 253.1 191.8 196.9 150"/>
  </g>
</svg>