<?xml version="1.0" encoding="UTF-8"?>
<svg id="ICON" xmlns="http://www.w3.org/2000/svg" version="1.1" viewBox="0 0 300 300">
  <!-- Generator: Adobe Illustrator 29.7.1, SVG Export Plug-In . SVG Version: 2.1.1 Build 8)  -->
  <defs>
    <style>
      .st0 {
        fill: #450d0a;
      }

      .st1 {
        fill: #ff8221;
      }
    </style>
  </defs>
  <circle class="st1" cx="150" cy="150" r="150"/>
  <g>
    <polygon class="st0" points="159.4 131.2 140.6 131.2 140.6 159.4 150 168.7 178.1 168.7 178.1 150 159.4 150 159.4 131.2"/>
    <path class="st0" d="M224.6,103.1c0-15.5-12.6-28.1-28.1-28.1s-24.4,9.2-27.3,21.6c-6.1-1.8-12.5-2.8-19.1-2.8s-13.3,1-19.5,2.9c-2.9-12.4-14.1-21.7-27.4-21.7s-28.1,12.6-28.1,28.1,6.9,21.4,16.9,25.8h0c-4.8,9.1-7.5,19.5-7.5,30.5,0,15.7,5.5,30,14.6,41.3l-14.6,14.9,9.3,9.4,14.8-14.7c11.3,9.2,25.7,14.7,41.4,14.7s30.2-5.5,41.5-14.8l14.9,14.8,9.3-9.4-14.7-15c9.1-11.3,14.6-25.6,14.6-41.2s-2.8-21.5-7.6-30.6c9.8-4.4,16.6-14.2,16.6-25.6ZM187.1,103.1c0-5.2,4.2-9.4,9.4-9.4s9.4,4.2,9.4,9.4-4.2,9.4-9.4,9.4-.4,0-.6,0c-2.6-2.6-5.4-4.9-8.5-7-.2-.8-.3-1.5-.3-2.4ZM103.1,93.7c5.2,0,9.4,4.2,9.4,9.4s-.1,1.8-.4,2.7c-2.8,2-5.5,4.2-8,6.6,0,0,0,0,0,0-.3,0-.7,0-1,0-5.2,0-9.4-4.2-9.4-9.4s4.2-9.4,9.4-9.4ZM150,206.1c-25.9,0-46.9-21-46.9-46.9s21-46.9,46.9-46.9,46.9,21,46.9,46.9-21,46.9-46.9,46.9Z"/>
  </g>
</svg>