<?xml version="1.0" encoding="UTF-8"?>
<svg id="ICON" xmlns="http://www.w3.org/2000/svg" version="1.1" viewBox="0 0 300 300">
  <!-- Generator: Adobe Illustrator 29.7.1, SVG Export Plug-In . SVG Version: 2.1.1 Build 8)  -->
  <defs>
    <style>
      .st0 {
        fill: #0a3847;
      }

      .st1 {
        fill: #abe8e5;
      }
    </style>
  </defs>
  <circle class="st1" cx="150" cy="150" r="150"/>
  <g>
    <path class="st0" d="M150,75c-41.4,0-75,33.6-75,75s33.6,75,75,75h74.8v-75c.1-41.4-33.4-75-74.8-75ZM206.2,206.2h-56.1c-31,0-56.2-25.2-56.2-56.2s25.2-56.2,56.2-56.2,56.2,25.2,56.2,56.2v56.3Z"/>
    <polygon class="st0" points="152.5 132.2 147.5 132.2 143.9 143.4 131.2 143.4 131.2 148.7 140.1 155.1 135.9 167.8 142.4 167.8 150 162.3 157.6 167.8 164.1 167.8 159.9 155.1 168.8 148.7 168.8 143.4 156.1 143.4 152.5 132.2"/>
  </g>
</svg>