<?xml version="1.0" encoding="UTF-8"?>
<svg id="ICON" xmlns="http://www.w3.org/2000/svg" version="1.1" viewBox="0 0 300 300">
  <!-- Generator: Adobe Illustrator 29.7.1, SVG Export Plug-In . SVG Version: 2.1.1 Build 8)  -->
  <defs>
    <style>
      .st0 {
        fill: #002e66;
      }

      .st1 {
        fill: #09f;
      }
    </style>
  </defs>
  <circle class="st0" cx="150" cy="150" r="150"/>
  <path class="st1" d="M201.5,206.3c-.8,0-1.7,0-2.7,0h-97.7c-1,0-1.9,0-2.7,0-23.3,0-42.3-19-42.3-42.3s16.8-40.1,38.3-42.1c4.5-26.6,27.7-47,55.6-47s51.1,20.4,55.6,47c21.4,2.1,38.2,20.2,38.2,42.1s-19,42.3-42.3,42.3ZM100.4,187.5h99.3c.7,0,1.2,0,1.7,0,13,0,23.5-10.6,23.5-23.5s-10.6-23.5-23.5-23.5-2.1,0-3.2.2l-10.9,1.5.3-11c0-20.7-16.9-37.5-37.6-37.5s-37.6,16.8-37.6,37.5c0,0,0,.2,0,.3v10.8l-10.7-1.5c-1.1-.2-2.2-.2-3.3-.2-13,0-23.5,10.6-23.5,23.5s10.6,23.5,23.5,23.5,1,0,1.7,0h.3Z"/>
</svg>