<?xml version="1.0" encoding="UTF-8"?>
<svg id="ICON" xmlns="http://www.w3.org/2000/svg" version="1.1" viewBox="0 0 300 300">
  <!-- Generator: Adobe Illustrator 29.7.1, SVG Export Plug-In . SVG Version: 2.1.1 Build 8)  -->
  <defs>
    <style>
      .st0 {
        fill: #d6d1bd;
      }

      .st1 {
        fill: #452e0a;
      }
    </style>
  </defs>
  <rect class="st0" width="300" height="300"/>
  <g>
    <path class="st1" d="M178.1,168.8v18.7h13.7c-10.3,11.5-25.2,18.7-41.9,18.7-31.1,0-56.2-25.2-56.2-56.2h-18.8c0,41.4,33.6,75,75,75s42.5-9.8,56.2-25.4v16.1h18.8v-37.5l-9.4-9.4h-37.5Z"/>
    <path class="st1" d="M121.9,131.2v-18.7h-13.7c10.3-11.5,25.2-18.7,41.9-18.7,31.1,0,56.2,25.2,56.2,56.2h18.8c0-41.4-33.6-75-75-75s-42.5,9.8-56.2,25.4v-16.1h-18.8v37.5l9.4,9.4h37.5Z"/>
  </g>
</svg>