<?xml version="1.0" encoding="UTF-8"?>
<svg id="ICON" xmlns="http://www.w3.org/2000/svg" version="1.1" viewBox="0 0 300 300">
  <!-- Generator: Adobe Illustrator 29.7.1, SVG Export Plug-In . SVG Version: 2.1.1 Build 8)  -->
  <defs>
    <style>
      .st0 {
        fill: #002e66;
      }

      .st1 {
        fill: #09f;
      }
    </style>
  </defs>
  <rect class="st0" width="300" height="300"/>
  <path class="st1" d="M178.1,84.4c-10.1,0-19.6,2.3-28.1,6.3-8.5-4.1-18.1-6.3-28.1-6.3-36.2,0-65.6,29.4-65.6,65.6s29.4,65.6,65.6,65.6,19.6-2.3,28.1-6.3c8.5,4.1,18.1,6.3,28.1,6.3,36.2,0,65.6-29.4,65.6-65.6s-29.4-65.6-65.6-65.6ZM168.8,150c0,15.3-7.4,29-18.8,37.5-11.4-8.6-18.8-22.2-18.8-37.5s7.4-29,18.8-37.5c11.4,8.6,18.8,22.2,18.8,37.5ZM121.9,196.9c-25.9,0-46.9-21-46.9-46.9s21-46.9,46.9-46.9,6.4.3,9.4.9c-11.6,11.8-18.8,28-18.8,45.9s7.2,34.1,18.8,45.9c-3,.6-6.2.9-9.4.9ZM178.1,196.9c-3.2,0-6.4-.3-9.4-.9,11.6-11.8,18.8-28,18.8-45.9s-7.2-34.1-18.8-45.9c3-.6,6.2-.9,9.4-.9,25.9,0,46.9,21,46.9,46.9s-21,46.9-46.9,46.9Z"/>
</svg>