<?xml version="1.0" encoding="UTF-8"?>
<svg id="ICON" xmlns="http://www.w3.org/2000/svg" version="1.1" viewBox="0 0 300 300">
  <defs>
    <style>
      .st0 { fill: #002e66; }
      .st1 { fill: #09f; }
    </style>
  </defs>
  <rect class="st0" width="300" height="300"/>
  <g>
    <path class="st1" d="M149.9,75c-41.4,0-75,33.6-75,75s33.6,75,75,75,75-33.6,75-75-33.6-75-75-75ZM150,206.3c-31,0-56.3-25.2-56.3-56.3s25.2-56.3,56.3-56.3,56.3,25.2,56.3,56.3-25.2,56.3-56.3,56.3Z"/>
    <polygon class="st1" points="146.3 125.1 161.8 140.6 112.8 140.6 112.5 140.6 112.5 159.4 161.8 159.4 146.3 174.9 158.2 186.7 187.5 155.9 187.5 144.1 158.2 113.3 146.3 125.1"/>
  </g>
</svg>
