<?xml version="1.0" encoding="UTF-8"?>
<svg id="ICON" xmlns="http://www.w3.org/2000/svg" version="1.1" viewBox="0 0 300 300">
  <defs>
    <style>
      .st0 { fill: #002e66; }
      .st1 { fill: #09f; }
    </style>
  </defs>
  <rect class="st1" width="300" height="300"/>
  <g>
    <path class="st0" d="M103.1,75c-15.5,0-28.1,12.6-28.1,28.1s12.6,28.1,28.1,28.1,28.1-12.6,28.1-28.1-12.6-28.1-28.1-28.1ZM103.1,112.6c-5.2,0-9.4-4.2-9.4-9.4s4.2-9.4,9.4-9.4,9.4,4.2,9.4,9.4-4.2,9.4-9.4,9.4Z"/>
    <polygon class="st0" points="224.7 182 211.5 168.8 196.8 183.5 182 168.7 168.7 181.9 183.5 196.7 168.9 211.4 182.1 224.6 196.8 210 211.6 224.8 224.9 211.5 210.1 196.7 224.7 182"/>
    <rect class="st0" x="75" y="168.8" width="18.8" height="18.8"/>
    <rect class="st0" x="103.1" y="168.8" width="18.8" height="18.8"/>
    <polygon class="st0" points="193.7 87 181.2 101 195 112.6 159.4 112.6 140.6 112.6 140.6 131.2 140.6 168.8 131.2 168.8 131.2 187.5 140.6 187.5 150 187.5 159.4 187.5 159.4 131.2 195.3 131.2 181.5 142.9 194 156.8 225 131.2 225 112.6 193.7 87"/>
  </g>
</svg>
